%TF.GenerationSoftware,KiCad,Pcbnew,8.0.0*%
%TF.CreationDate,2024-03-19T23:22:05-04:00*%
%TF.ProjectId,Ethernet_Dev_Board,45746865-726e-4657-945f-4465765f426f,rev?*%
%TF.SameCoordinates,Original*%
%TF.FileFunction,Soldermask,Top*%
%TF.FilePolarity,Negative*%
%FSLAX46Y46*%
G04 Gerber Fmt 4.6, Leading zero omitted, Abs format (unit mm)*
G04 Created by KiCad (PCBNEW 8.0.0) date 2024-03-19 23:22:05*
%MOMM*%
%LPD*%
G01*
G04 APERTURE LIST*
G04 Aperture macros list*
%AMRoundRect*
0 Rectangle with rounded corners*
0 $1 Rounding radius*
0 $2 $3 $4 $5 $6 $7 $8 $9 X,Y pos of 4 corners*
0 Add a 4 corners polygon primitive as box body*
4,1,4,$2,$3,$4,$5,$6,$7,$8,$9,$2,$3,0*
0 Add four circle primitives for the rounded corners*
1,1,$1+$1,$2,$3*
1,1,$1+$1,$4,$5*
1,1,$1+$1,$6,$7*
1,1,$1+$1,$8,$9*
0 Add four rect primitives between the rounded corners*
20,1,$1+$1,$2,$3,$4,$5,0*
20,1,$1+$1,$4,$5,$6,$7,0*
20,1,$1+$1,$6,$7,$8,$9,0*
20,1,$1+$1,$8,$9,$2,$3,0*%
G04 Aperture macros list end*
%ADD10RoundRect,0.050800X0.500000X0.550000X-0.500000X0.550000X-0.500000X-0.550000X0.500000X-0.550000X0*%
%ADD11RoundRect,0.050800X0.550000X-0.500000X0.550000X0.500000X-0.550000X0.500000X-0.550000X-0.500000X0*%
%ADD12RoundRect,0.050800X-0.550000X0.500000X-0.550000X-0.500000X0.550000X-0.500000X0.550000X0.500000X0*%
%ADD13RoundRect,0.050800X-1.500000X1.000000X-1.500000X-1.000000X1.500000X-1.000000X1.500000X1.000000X0*%
%ADD14RoundRect,0.050800X-3.500000X3.500000X-3.500000X-3.500000X3.500000X-3.500000X3.500000X3.500000X0*%
%ADD15RoundRect,0.050800X-0.500000X-0.550000X0.500000X-0.550000X0.500000X0.550000X-0.500000X0.550000X0*%
%ADD16RoundRect,0.050800X-0.600000X0.700000X-0.600000X-0.700000X0.600000X-0.700000X0.600000X0.700000X0*%
%ADD17RoundRect,0.050800X0.600000X-0.700000X0.600000X0.700000X-0.600000X0.700000X-0.600000X-0.700000X0*%
%ADD18RoundRect,0.050800X-0.700000X-0.600000X0.700000X-0.600000X0.700000X0.600000X-0.700000X0.600000X0*%
%ADD19RoundRect,0.050800X0.700000X0.600000X-0.700000X0.600000X-0.700000X-0.600000X0.700000X-0.600000X0*%
%ADD20R,1.700000X1.700000*%
%ADD21O,1.700000X1.700000*%
%ADD22RoundRect,0.050800X1.750000X-1.400000X1.750000X1.400000X-1.750000X1.400000X-1.750000X-1.400000X0*%
%ADD23RoundRect,0.050800X0.450000X0.750000X-0.450000X0.750000X-0.450000X-0.750000X0.450000X-0.750000X0*%
%ADD24RoundRect,0.050800X0.750000X-0.450000X0.750000X0.450000X-0.750000X0.450000X-0.750000X-0.450000X0*%
%ADD25RoundRect,0.050800X3.000000X-3.000000X3.000000X3.000000X-3.000000X3.000000X-3.000000X-3.000000X0*%
%ADD26RoundRect,0.155958X-0.149842X-0.199842X0.149842X-0.199842X0.149842X0.199842X-0.149842X0.199842X0*%
%ADD27RoundRect,0.115158X-0.110642X-0.240642X0.110642X-0.240642X0.110642X0.240642X-0.110642X0.240642X0*%
%ADD28RoundRect,0.155958X0.149842X0.199842X-0.149842X0.199842X-0.149842X-0.199842X0.149842X-0.199842X0*%
%ADD29RoundRect,0.115158X0.110642X0.240642X-0.110642X0.240642X-0.110642X-0.240642X0.110642X-0.240642X0*%
%ADD30RoundRect,0.095400X0.535400X-0.095400X0.535400X0.095400X-0.535400X0.095400X-0.535400X-0.095400X0*%
%ADD31RoundRect,0.095400X0.095400X0.535400X-0.095400X0.535400X-0.095400X-0.535400X0.095400X-0.535400X0*%
%ADD32RoundRect,0.095400X-0.535400X0.095400X-0.535400X-0.095400X0.535400X-0.095400X0.535400X0.095400X0*%
%ADD33RoundRect,0.095400X-0.095400X-0.535400X0.095400X-0.535400X0.095400X0.535400X-0.095400X0.535400X0*%
%ADD34RoundRect,0.050800X-0.300000X-0.650000X0.300000X-0.650000X0.300000X0.650000X-0.300000X0.650000X0*%
%ADD35RoundRect,0.050800X0.800000X0.901500X-0.800000X0.901500X-0.800000X-0.901500X0.800000X-0.901500X0*%
%ADD36RoundRect,0.127624X-0.518176X0.113176X-0.518176X-0.113176X0.518176X-0.113176X0.518176X0.113176X0*%
%ADD37RoundRect,0.127624X0.518176X-0.113176X0.518176X0.113176X-0.518176X0.113176X-0.518176X-0.113176X0*%
%ADD38RoundRect,0.050800X0.650000X-0.750000X0.650000X0.750000X-0.650000X0.750000X-0.650000X-0.750000X0*%
%ADD39RoundRect,0.050800X1.275000X1.275000X-1.275000X1.275000X-1.275000X-1.275000X1.275000X-1.275000X0*%
%ADD40C,2.651600*%
%ADD41RoundRect,0.050800X-0.350000X0.400000X-0.350000X-0.400000X0.350000X-0.400000X0.350000X0.400000X0*%
%ADD42R,1.700000X2.100000*%
%ADD43R,1.200000X1.400000*%
%ADD44RoundRect,0.050800X0.750000X0.650000X-0.750000X0.650000X-0.750000X-0.650000X0.750000X-0.650000X0*%
%ADD45RoundRect,0.050800X-1.050000X-0.700000X1.050000X-0.700000X1.050000X0.700000X-1.050000X0.700000X0*%
%ADD46C,3.300000*%
%ADD47C,1.509600*%
%ADD48C,1.401600*%
%ADD49C,2.285600*%
%ADD50RoundRect,0.174342X-0.481458X0.181458X-0.481458X-0.181458X0.481458X-0.181458X0.481458X0.181458X0*%
%ADD51RoundRect,0.174342X0.481458X-0.181458X0.481458X0.181458X-0.481458X0.181458X-0.481458X-0.181458X0*%
%ADD52C,2.375000*%
%ADD53C,0.991000*%
%ADD54C,0.888600*%
%ADD55RoundRect,0.127624X-0.113176X-0.518176X0.113176X-0.518176X0.113176X0.518176X-0.113176X0.518176X0*%
%ADD56RoundRect,0.127624X0.113176X0.518176X-0.113176X0.518176X-0.113176X-0.518176X0.113176X-0.518176X0*%
G04 APERTURE END LIST*
D10*
%TO.C,C305*%
X113500000Y-53600000D03*
X113500000Y-51900000D03*
%TD*%
D11*
%TO.C,C207*%
X128400000Y-75000000D03*
X130100000Y-75000000D03*
%TD*%
D10*
%TO.C,C402*%
X90750000Y-85850000D03*
X90750000Y-84150000D03*
%TD*%
D12*
%TO.C,C109*%
X108850000Y-64250000D03*
X107150000Y-64250000D03*
%TD*%
%TO.C,R306*%
X130750000Y-59500000D03*
X129050000Y-59500000D03*
%TD*%
D13*
%TO.C,U101*%
X94650000Y-93459000D03*
X94650001Y-98064000D03*
D14*
X101750000Y-95750000D03*
%TD*%
D10*
%TO.C,R203*%
X91000000Y-101750000D03*
X91000000Y-100050000D03*
%TD*%
%TO.C,R406*%
X85500000Y-101750000D03*
X85500000Y-100050000D03*
%TD*%
%TO.C,R102*%
X95500000Y-55930000D03*
X95500000Y-54230000D03*
%TD*%
%TO.C,C310*%
X133250000Y-64200000D03*
X133250000Y-62500000D03*
%TD*%
D15*
%TO.C,R204*%
X116500000Y-70150000D03*
X116500000Y-71850000D03*
%TD*%
D16*
%TO.C,XTAL301*%
X126150000Y-53650000D03*
D17*
X127850000Y-53650000D03*
D16*
X126150000Y-55850000D03*
D17*
X127850000Y-55850000D03*
%TD*%
D15*
%TO.C,C115*%
X115750000Y-90400000D03*
X115750000Y-92100000D03*
%TD*%
D12*
%TO.C,C119*%
X108800000Y-78250000D03*
X107100000Y-78250000D03*
%TD*%
D15*
%TO.C,C125*%
X101750000Y-54230000D03*
X101750000Y-55930000D03*
%TD*%
D18*
%TO.C,XTAL201*%
X117650000Y-90350000D03*
D19*
X117650000Y-88650000D03*
D18*
X119850000Y-90350000D03*
D19*
X119850000Y-88650000D03*
%TD*%
D12*
%TO.C,C116*%
X108850000Y-56500000D03*
X107150000Y-56500000D03*
%TD*%
D20*
%TO.C,J402*%
X84790000Y-47500000D03*
D21*
X87330000Y-47500000D03*
X89870000Y-47500000D03*
X92410000Y-47500000D03*
X94950000Y-47500000D03*
X97490000Y-47500000D03*
X100030000Y-47500000D03*
X102570000Y-47500000D03*
X105110000Y-47500000D03*
X107650000Y-47500000D03*
X110190000Y-47500000D03*
X112730000Y-47500000D03*
X115270000Y-47500000D03*
X117810000Y-47500000D03*
%TD*%
D22*
%TO.C,TVS101*%
X102500000Y-84050000D03*
X102500000Y-89450000D03*
%TD*%
D23*
%TO.C,U402*%
X85470000Y-80740000D03*
X86740000Y-80740000D03*
X88010000Y-80740000D03*
X89280000Y-80740000D03*
X90550000Y-80740000D03*
X91820000Y-80740000D03*
X93090000Y-80740000D03*
X94360000Y-80740000D03*
X95630000Y-80740000D03*
X96900000Y-80740000D03*
X98170000Y-80740000D03*
X99440000Y-80740000D03*
X100710000Y-80740000D03*
X101980000Y-80740000D03*
D24*
X103230000Y-77705000D03*
X103230000Y-76425000D03*
X103230000Y-75155000D03*
X103230000Y-73885000D03*
X103230000Y-72615000D03*
X103230000Y-71345000D03*
X103230000Y-70075000D03*
X103230000Y-68805000D03*
X103230000Y-67535000D03*
X103230000Y-66274000D03*
D23*
X101980000Y-63240000D03*
X100710000Y-63240000D03*
X99440000Y-63240000D03*
X98170000Y-63240000D03*
X96900000Y-63240000D03*
X95630000Y-63240000D03*
X94360000Y-63240000D03*
X93090000Y-63240000D03*
X91820000Y-63240000D03*
X90550000Y-63240000D03*
X89280000Y-63240000D03*
X88010000Y-63240000D03*
X86740000Y-63240000D03*
X85470000Y-63240000D03*
D25*
X92810000Y-73490000D03*
%TD*%
D10*
%TO.C,R405*%
X82750000Y-101750000D03*
X82750000Y-100050000D03*
%TD*%
D15*
%TO.C,R209*%
X122250000Y-70150000D03*
X122250000Y-71850000D03*
%TD*%
D12*
%TO.C,C404*%
X87100000Y-84250000D03*
X85400000Y-84250000D03*
%TD*%
D26*
%TO.C,R202*%
X127890000Y-84760000D03*
D27*
X128610000Y-84760000D03*
X129250000Y-84760000D03*
X129890000Y-84760000D03*
D26*
X130610000Y-84760000D03*
D28*
X130610000Y-83240000D03*
D29*
X129890000Y-83240000D03*
X129250000Y-83240000D03*
X128610000Y-83240000D03*
D28*
X127890000Y-83240000D03*
%TD*%
D12*
%TO.C,R403*%
X101850000Y-61000000D03*
X100150000Y-61000000D03*
%TD*%
D30*
%TO.C,U301*%
X121380000Y-63380000D03*
X121380000Y-62880000D03*
X121380000Y-62380000D03*
X121380000Y-61880000D03*
X121380000Y-61380000D03*
X121380000Y-60880000D03*
X121380000Y-60380000D03*
X121380000Y-59880000D03*
X121380000Y-59380000D03*
X121380000Y-58880000D03*
X121380000Y-58380000D03*
X121380000Y-57880000D03*
D31*
X120000000Y-56500000D03*
X119500000Y-56500000D03*
X119000000Y-56500000D03*
X118500000Y-56500000D03*
X118000000Y-56500000D03*
X117500000Y-56500000D03*
X117000000Y-56500000D03*
X116500000Y-56500000D03*
X116000000Y-56500000D03*
X115500000Y-56500000D03*
X115000000Y-56500000D03*
X114500000Y-56500000D03*
D32*
X113120000Y-57880000D03*
X113120000Y-58380000D03*
X113120000Y-58880000D03*
X113120000Y-59380000D03*
X113120000Y-59880000D03*
X113120000Y-60380000D03*
X113120000Y-60880000D03*
X113120000Y-61380000D03*
X113120000Y-61880000D03*
X113120000Y-62380000D03*
X113120000Y-62880000D03*
X113120000Y-63380000D03*
D33*
X114500000Y-64760000D03*
X115000000Y-64760000D03*
X115500000Y-64760000D03*
X116000000Y-64760000D03*
X116500000Y-64760000D03*
X117000000Y-64760000D03*
X117500000Y-64760000D03*
X118000000Y-64760000D03*
X118500000Y-64760000D03*
X119000000Y-64760000D03*
X119500000Y-64760000D03*
X120000000Y-64760000D03*
%TD*%
D15*
%TO.C,C406*%
X98750000Y-84150000D03*
X98750000Y-85850000D03*
%TD*%
D10*
%TO.C,C309*%
X118000000Y-53600000D03*
X118000000Y-51900000D03*
%TD*%
D12*
%TO.C,C304*%
X124850000Y-51850000D03*
X123150000Y-51850000D03*
%TD*%
%TO.C,C113*%
X108850000Y-62750000D03*
X107150000Y-62750000D03*
%TD*%
%TO.C,R309*%
X126100000Y-61000000D03*
X124400000Y-61000000D03*
%TD*%
%TO.C,C107*%
X108800000Y-84250000D03*
X107100000Y-84250000D03*
%TD*%
D34*
%TO.C,U403*%
X95300000Y-86450000D03*
X96250000Y-86450000D03*
X97200000Y-86450000D03*
X97200000Y-83551000D03*
X96250000Y-83550000D03*
X95300000Y-83551000D03*
%TD*%
D15*
%TO.C,C210*%
X115750000Y-87150000D03*
X115750000Y-88850000D03*
%TD*%
D10*
%TO.C,R210*%
X125250000Y-99100000D03*
X125250000Y-97400000D03*
%TD*%
D12*
%TO.C,R308*%
X126100000Y-62500000D03*
X124400000Y-62500000D03*
%TD*%
D10*
%TO.C,FB302*%
X115000000Y-53600000D03*
X115000000Y-51900000D03*
%TD*%
D12*
%TO.C,R311*%
X126100000Y-65750000D03*
X124400000Y-65750000D03*
%TD*%
%TO.C,R310*%
X126100000Y-59500000D03*
X124400000Y-59500000D03*
%TD*%
D10*
%TO.C,R101*%
X80000000Y-101750000D03*
X80000000Y-100050000D03*
%TD*%
D15*
%TO.C,C209*%
X121850000Y-88650000D03*
X121850000Y-90350000D03*
%TD*%
%TO.C,C405*%
X111640000Y-105530000D03*
X111640000Y-107230000D03*
%TD*%
D31*
%TO.C,U201*%
X121250000Y-76870000D03*
X120750000Y-76870000D03*
X120250000Y-76870000D03*
X119750000Y-76870000D03*
X119250000Y-76870000D03*
X118750000Y-76870000D03*
X118250000Y-76870000D03*
X117750000Y-76870000D03*
X117250000Y-76870000D03*
X116750000Y-76870000D03*
X116250000Y-76870000D03*
X115750000Y-76870000D03*
D32*
X114370000Y-78250000D03*
X114370000Y-78750000D03*
X114370000Y-79250000D03*
X114370000Y-79750000D03*
X114370000Y-80250000D03*
X114370000Y-80750000D03*
X114370000Y-81250000D03*
X114370000Y-81750000D03*
X114370000Y-82250000D03*
X114370000Y-82750000D03*
X114370000Y-83250000D03*
X114370000Y-83750000D03*
D33*
X115750000Y-85130000D03*
X116250000Y-85130000D03*
X116750000Y-85130000D03*
X117250000Y-85130000D03*
X117750000Y-85130000D03*
X118250000Y-85130000D03*
X118750000Y-85130000D03*
X119250000Y-85130000D03*
X119750000Y-85130000D03*
X120250000Y-85130000D03*
X120750000Y-85130000D03*
X121250000Y-85130000D03*
D30*
X122630000Y-83750000D03*
X122630000Y-83250000D03*
X122630000Y-82750000D03*
X122630000Y-82250000D03*
X122630000Y-81750000D03*
X122630000Y-81250000D03*
X122630000Y-80750000D03*
X122630000Y-80250000D03*
X122630000Y-79750000D03*
X122630000Y-79250000D03*
X122630000Y-78750000D03*
X122630000Y-78250000D03*
%TD*%
D35*
%TO.C,C306*%
X143876000Y-46880000D03*
X140624000Y-46880000D03*
%TD*%
D12*
%TO.C,C118*%
X108850000Y-57948000D03*
X107150000Y-57948000D03*
%TD*%
D11*
%TO.C,R212*%
X117750000Y-87000000D03*
X119450000Y-87000000D03*
%TD*%
D10*
%TO.C,C203*%
X119500000Y-71850000D03*
X119500000Y-70150000D03*
%TD*%
D12*
%TO.C,C111*%
X108800000Y-82750000D03*
X107100000Y-82750000D03*
%TD*%
D36*
%TO.C,U103*%
X129170000Y-48750000D03*
X129170000Y-49400000D03*
X129170000Y-50050000D03*
D37*
X131000000Y-50050000D03*
X131000000Y-48750000D03*
%TD*%
D12*
%TO.C,C114*%
X108800000Y-81250000D03*
X107100000Y-81250000D03*
%TD*%
%TO.C,R305*%
X130750000Y-61000000D03*
X129050000Y-61000000D03*
%TD*%
D10*
%TO.C,C201*%
X115000000Y-71850000D03*
X115000000Y-70150000D03*
%TD*%
D15*
%TO.C,R207*%
X125250000Y-70150000D03*
X125250000Y-71850000D03*
%TD*%
D10*
%TO.C,C202*%
X113500000Y-71850000D03*
X113500000Y-70150000D03*
%TD*%
%TO.C,C312*%
X121000000Y-53600000D03*
X121000000Y-51900000D03*
%TD*%
D38*
%TO.C,LED401*%
X81440000Y-106640000D03*
X79560000Y-106640000D03*
%TD*%
D39*
%TO.C,J101*%
X87970000Y-95210000D03*
D40*
X87970000Y-90130000D03*
%TD*%
D12*
%TO.C,R303*%
X130750000Y-64000000D03*
X129050000Y-64000000D03*
%TD*%
D41*
%TO.C,D401*%
X93850000Y-85710000D03*
X93850000Y-84290000D03*
%TD*%
D10*
%TO.C,R312*%
X88250000Y-101750000D03*
X88250000Y-100050000D03*
%TD*%
D38*
%TO.C,LED301*%
X89690000Y-104100000D03*
X87810000Y-104100000D03*
%TD*%
D12*
%TO.C,R402*%
X99100000Y-88250000D03*
X97400000Y-88250000D03*
%TD*%
D42*
%TO.C,Y201*%
X122250000Y-98750000D03*
X122250000Y-93670000D03*
X117850000Y-93670000D03*
X117850000Y-98750000D03*
%TD*%
D12*
%TO.C,R407*%
X101850000Y-58000000D03*
X100150000Y-58000000D03*
%TD*%
D11*
%TO.C,C206*%
X128400000Y-73500000D03*
X130100000Y-73500000D03*
%TD*%
D43*
%TO.C,Y301*%
X131300000Y-55850000D03*
X131300000Y-53650000D03*
X129700000Y-53650000D03*
X129700000Y-55850000D03*
%TD*%
D10*
%TO.C,R201*%
X118000000Y-71850000D03*
X118000000Y-70150000D03*
%TD*%
D44*
%TO.C,FB101*%
X108000000Y-92200000D03*
X108000000Y-90300000D03*
%TD*%
D10*
%TO.C,C302*%
X110500000Y-53600000D03*
X110500000Y-51900000D03*
%TD*%
D15*
%TO.C,R302*%
X124250000Y-54150000D03*
X124250000Y-55850000D03*
%TD*%
D45*
%TO.C,S402*%
X114200000Y-104000000D03*
X114200000Y-108500000D03*
X123300000Y-104000000D03*
X123300000Y-108500000D03*
%TD*%
D46*
%TO.C,J301*%
X147034000Y-63965000D03*
X147034000Y-52535000D03*
D47*
X150412000Y-51924000D03*
X151932000Y-54466000D03*
X150412000Y-62036000D03*
X151932000Y-64574000D03*
D48*
X140684000Y-62695000D03*
X138144000Y-61425000D03*
X140684000Y-60155000D03*
X138144000Y-58885000D03*
X140684000Y-57615000D03*
X138144000Y-56345000D03*
X140684000Y-55075000D03*
X138144000Y-53805000D03*
D49*
X143984000Y-66125000D03*
X143984000Y-50375000D03*
%TD*%
D10*
%TO.C,C101*%
X92000000Y-96600000D03*
X92000000Y-94900000D03*
%TD*%
D15*
%TO.C,R206*%
X126750000Y-70150000D03*
X126750000Y-71850000D03*
%TD*%
D12*
%TO.C,R307*%
X126100000Y-64000000D03*
X124400000Y-64000000D03*
%TD*%
D15*
%TO.C,R301*%
X135250000Y-54400000D03*
X135250000Y-56100000D03*
%TD*%
D12*
%TO.C,C117*%
X108800000Y-79750000D03*
X107100000Y-79750000D03*
%TD*%
D10*
%TO.C,C126*%
X94000000Y-55930000D03*
X94000000Y-54230000D03*
%TD*%
%TO.C,C313*%
X133250000Y-60850000D03*
X133250000Y-59150000D03*
%TD*%
D50*
%TO.C,Q201*%
X127245000Y-90385000D03*
X127245000Y-92285000D03*
D51*
X129255000Y-91335000D03*
%TD*%
D38*
%TO.C,LED201*%
X89690000Y-109180000D03*
X87810000Y-109180000D03*
%TD*%
D35*
%TO.C,C208*%
X143876000Y-92500000D03*
X140624000Y-92500000D03*
%TD*%
D10*
%TO.C,C204*%
X115350000Y-99100000D03*
X115350000Y-97400000D03*
%TD*%
D44*
%TO.C,FB102*%
X110750000Y-92200000D03*
X110750000Y-90300000D03*
%TD*%
D12*
%TO.C,R304*%
X130750000Y-62500000D03*
X129050000Y-62500000D03*
%TD*%
D15*
%TO.C,C112*%
X114250000Y-90400000D03*
X114250000Y-92100000D03*
%TD*%
D10*
%TO.C,FB103*%
X108900000Y-61200000D03*
X108900000Y-59500000D03*
%TD*%
D15*
%TO.C,C401*%
X96100000Y-105530000D03*
X96100000Y-107230000D03*
%TD*%
D10*
%TO.C,C311*%
X119500000Y-53600000D03*
X119500000Y-51900000D03*
%TD*%
D12*
%TO.C,C106*%
X99350000Y-91000000D03*
X97650000Y-91000000D03*
%TD*%
%TO.C,R404*%
X101850000Y-59500000D03*
X100150000Y-59500000D03*
%TD*%
D52*
%TO.C,J401*%
X82460000Y-53595000D03*
D53*
X82460000Y-56135000D03*
D52*
X82460000Y-58675000D03*
X88175000Y-53595000D03*
X88175000Y-58675000D03*
D53*
X90080000Y-55119000D03*
X90080000Y-57151000D03*
D54*
X83730000Y-56770000D03*
X85000000Y-56770000D03*
X86270000Y-56770000D03*
X87540000Y-56770000D03*
X88810000Y-56770000D03*
X88810000Y-55500000D03*
X87540000Y-55500000D03*
X86270000Y-55500000D03*
X85000000Y-55500000D03*
X83730000Y-55500000D03*
%TD*%
D12*
%TO.C,C124*%
X108800000Y-73750000D03*
X107100000Y-73750000D03*
%TD*%
%TO.C,C403*%
X87100000Y-82750000D03*
X85400000Y-82750000D03*
%TD*%
D45*
%TO.C,S401*%
X99060000Y-104000000D03*
X99060000Y-108500000D03*
X108160000Y-104000000D03*
X108160000Y-108500000D03*
%TD*%
D15*
%TO.C,C128*%
X132750000Y-48400000D03*
X132750000Y-50100000D03*
%TD*%
%TO.C,FB301*%
X112000000Y-51900000D03*
X112000000Y-53600000D03*
%TD*%
%TO.C,R208*%
X123750000Y-70150000D03*
X123750000Y-71850000D03*
%TD*%
D12*
%TO.C,C205*%
X130100000Y-88000000D03*
X128400000Y-88000000D03*
%TD*%
D46*
%TO.C,J201*%
X147034000Y-87000000D03*
X147034000Y-75570000D03*
D47*
X150412000Y-74959000D03*
X151932000Y-77501000D03*
X150412000Y-85071000D03*
X151932000Y-87609000D03*
D48*
X140684000Y-85730000D03*
X138144000Y-84460000D03*
X140684000Y-83190000D03*
X138144000Y-81920000D03*
X140684000Y-80650000D03*
X138144000Y-79380000D03*
X140684000Y-78110000D03*
X138144000Y-76840000D03*
D49*
X143984000Y-89160000D03*
X143984000Y-73410000D03*
%TD*%
D12*
%TO.C,R211*%
X130100000Y-86500000D03*
X128400000Y-86500000D03*
%TD*%
D38*
%TO.C,LED101*%
X81440000Y-104100000D03*
X79560000Y-104100000D03*
%TD*%
D12*
%TO.C,C303*%
X127850000Y-57750000D03*
X126150000Y-57750000D03*
%TD*%
D41*
%TO.C,D101*%
X97125000Y-55915000D03*
X97125000Y-54495000D03*
%TD*%
D10*
%TO.C,C308*%
X135250000Y-64200000D03*
X135250000Y-62500000D03*
%TD*%
D12*
%TO.C,C123*%
X108800000Y-75250000D03*
X107100000Y-75250000D03*
%TD*%
D10*
%TO.C,C301*%
X132900000Y-54600000D03*
X132900000Y-52900000D03*
%TD*%
D55*
%TO.C,U102*%
X98950000Y-56080000D03*
X99600000Y-56080000D03*
X100250000Y-56080000D03*
D56*
X100250000Y-54250000D03*
X98950000Y-54250000D03*
%TD*%
D15*
%TO.C,C108*%
X112750000Y-90400000D03*
X112750000Y-92100000D03*
%TD*%
D38*
%TO.C,LED402*%
X81440000Y-109180000D03*
X79560000Y-109180000D03*
%TD*%
D10*
%TO.C,C307*%
X116500000Y-53600000D03*
X116500000Y-51900000D03*
%TD*%
D12*
%TO.C,C121*%
X108800000Y-76750000D03*
X107100000Y-76750000D03*
%TD*%
D15*
%TO.C,R401*%
X92350000Y-84150000D03*
X92350000Y-85850000D03*
%TD*%
D28*
%TO.C,R205*%
X130610000Y-77490000D03*
D29*
X129890000Y-77490000D03*
X129250000Y-77490000D03*
X128610000Y-77490000D03*
D28*
X127890000Y-77490000D03*
D26*
X127890000Y-79010000D03*
D27*
X128610000Y-79010000D03*
X129250000Y-79010000D03*
X129890000Y-79010000D03*
D26*
X130610000Y-79010000D03*
%TD*%
D15*
%TO.C,C127*%
X126250000Y-48400000D03*
X126250000Y-50100000D03*
%TD*%
M02*
