%TF.GenerationSoftware,KiCad,Pcbnew,8.0.0*%
%TF.CreationDate,2024-03-18T14:57:31-04:00*%
%TF.ProjectId,Ethernet_Dev_Board,45746865-726e-4657-945f-4465765f426f,rev?*%
%TF.SameCoordinates,Original*%
%TF.FileFunction,Plated,1,4,PTH,Drill*%
%TF.FilePolarity,Positive*%
%FSLAX46Y46*%
G04 Gerber Fmt 4.6, Leading zero omitted, Abs format (unit mm)*
G04 Created by KiCad (PCBNEW 8.0.0) date 2024-03-18 14:57:31*
%MOMM*%
%LPD*%
G01*
G04 APERTURE LIST*
%TA.AperFunction,ViaDrill*%
%ADD10C,0.300000*%
%TD*%
%TA.AperFunction,ComponentDrill*%
%ADD11C,0.900000*%
%TD*%
%TA.AperFunction,ComponentDrill*%
%ADD12C,1.000000*%
%TD*%
%TA.AperFunction,ComponentDrill*%
%ADD13C,1.600000*%
%TD*%
%TA.AperFunction,ComponentDrill*%
%ADD14C,1.700000*%
%TD*%
G04 APERTURE END LIST*
D10*
X80400000Y-108000000D03*
X80500000Y-105400000D03*
X82199265Y-86849265D03*
X83200000Y-60900000D03*
X84200000Y-51800000D03*
X84201000Y-83439000D03*
X86106000Y-51689000D03*
X86233000Y-85852000D03*
X86741000Y-60833000D03*
X86886742Y-106313258D03*
X86900000Y-100100000D03*
X87884000Y-60706000D03*
X87950000Y-65050000D03*
X88200000Y-83900000D03*
X88900000Y-66040000D03*
X89154000Y-64516000D03*
X89200000Y-85200000D03*
X89916000Y-82296000D03*
X90043000Y-59690000D03*
X90170000Y-70866000D03*
X90170000Y-71755000D03*
X90170000Y-72644000D03*
X90170000Y-74295000D03*
X90170000Y-75184000D03*
X90170000Y-76073000D03*
X90300000Y-106800000D03*
X91059000Y-70866000D03*
X91059000Y-76073000D03*
X91167000Y-104883000D03*
X91186000Y-103251000D03*
X91694000Y-58928000D03*
X91948000Y-70866000D03*
X91948000Y-76073000D03*
X92837000Y-70866000D03*
X92837000Y-76073000D03*
X92964000Y-61722000D03*
X93000000Y-65400000D03*
X93091000Y-101600000D03*
X93100000Y-57400000D03*
X93726000Y-70866000D03*
X93726000Y-76073000D03*
X94107000Y-79375000D03*
X94615000Y-70866000D03*
X94615000Y-76073000D03*
X94742000Y-102743000D03*
X95377000Y-70866000D03*
X95377000Y-71755000D03*
X95377000Y-72644000D03*
X95377000Y-74295000D03*
X95377000Y-75184000D03*
X95377000Y-76073000D03*
X95500000Y-85200000D03*
X95504000Y-79375000D03*
X95758000Y-88265000D03*
X96100000Y-108800000D03*
X96139000Y-104140000D03*
X96774000Y-79375000D03*
X96774000Y-84963000D03*
X97800000Y-85300000D03*
X97925000Y-79375000D03*
X98044000Y-87122000D03*
X98171000Y-65029000D03*
X98300000Y-56800000D03*
X98425000Y-59563000D03*
X98679000Y-60960000D03*
X99314000Y-79375000D03*
X99697600Y-85900000D03*
X100584000Y-79375000D03*
X101337765Y-74962235D03*
X101650000Y-71250000D03*
X101727000Y-69342000D03*
X101750000Y-70231000D03*
X101854000Y-67564000D03*
X101854000Y-76327000D03*
X101854000Y-79375000D03*
X102500000Y-86300000D03*
X103124000Y-65151000D03*
X103200000Y-78700000D03*
X103759000Y-63627000D03*
X103800000Y-60200000D03*
X104196000Y-62865000D03*
X104400000Y-57600000D03*
X104546000Y-56200000D03*
X105226391Y-88039713D03*
X105354000Y-68800000D03*
X105458000Y-86850000D03*
X106000000Y-75300000D03*
X106000000Y-76700000D03*
X106000000Y-78100000D03*
X106000000Y-79500000D03*
X106000000Y-81000000D03*
X106000000Y-82500000D03*
X106000000Y-83900000D03*
X106018329Y-86279005D03*
X106089000Y-73900000D03*
X106700000Y-85700000D03*
X107150000Y-59563000D03*
X107200000Y-54100000D03*
X107500000Y-65600000D03*
X108750000Y-67900000D03*
X108800000Y-72400000D03*
X110109000Y-62738000D03*
X110500000Y-50300000D03*
X110500000Y-55100000D03*
X111500000Y-108900000D03*
X111633000Y-60579000D03*
X111760000Y-61976000D03*
X111760000Y-82296000D03*
X111760000Y-104140000D03*
X112000000Y-58300000D03*
X112350000Y-83250000D03*
X112900000Y-106200000D03*
X113000000Y-81400000D03*
X113284000Y-64516000D03*
X113500000Y-50300000D03*
X113500000Y-69342000D03*
X113500000Y-73100000D03*
X113600000Y-88700000D03*
X114427000Y-59944000D03*
X115000000Y-69342000D03*
X115000000Y-73100000D03*
X115100000Y-85200000D03*
X115272663Y-58027337D03*
X115300000Y-96200000D03*
X115443000Y-55372000D03*
X115600000Y-78500000D03*
X115600000Y-83100000D03*
X115697000Y-80391000D03*
X115800000Y-93300000D03*
X116300000Y-107000000D03*
X116500000Y-50300000D03*
X116500000Y-69342000D03*
X116586000Y-88773000D03*
X116600000Y-66200000D03*
X116600000Y-84000000D03*
X117100000Y-78100000D03*
X117200000Y-80000000D03*
X117300000Y-59200000D03*
X117750000Y-62300000D03*
X117948878Y-84097486D03*
X118000000Y-50300000D03*
X118000000Y-69342000D03*
X118000000Y-73100000D03*
X118300000Y-58000000D03*
X118800000Y-60150000D03*
X119000000Y-83800000D03*
X119500000Y-50300000D03*
X119500000Y-69342000D03*
X119756239Y-83434358D03*
X119761000Y-63500000D03*
X119900000Y-91600000D03*
X120000000Y-58400000D03*
X120015000Y-55245000D03*
X120200000Y-84100000D03*
X120499479Y-74199479D03*
X120700000Y-86300000D03*
X121000000Y-50300000D03*
X121000000Y-93700000D03*
X121031000Y-78232000D03*
X121100521Y-74800521D03*
X121416841Y-84183159D03*
X121500000Y-82200000D03*
X121649479Y-73049479D03*
X121800000Y-91600000D03*
X121999479Y-75099479D03*
X122500000Y-59400000D03*
X122600521Y-75700521D03*
X122900000Y-64400000D03*
X123191636Y-73341636D03*
X123200000Y-50300000D03*
X123200000Y-65900000D03*
X124000000Y-81850000D03*
X124024265Y-83875735D03*
X125000000Y-57800000D03*
X125100000Y-73375000D03*
X125100000Y-74225000D03*
X125300000Y-54800000D03*
X126000000Y-90300000D03*
X126600000Y-77700000D03*
X126600000Y-86300000D03*
X127100000Y-79000000D03*
X127100000Y-88000000D03*
X127600000Y-65700000D03*
X127800000Y-52300000D03*
X127900000Y-82400000D03*
X128016000Y-49149000D03*
X128600000Y-76800000D03*
X128950000Y-76050000D03*
X129032000Y-81153000D03*
X129200000Y-85400000D03*
X129667000Y-80645000D03*
X129800000Y-76300000D03*
X129823655Y-58104876D03*
X129900000Y-84100000D03*
X130399479Y-66300521D03*
X130429000Y-80264000D03*
X130600000Y-76700000D03*
X130625000Y-58074998D03*
X131000521Y-65699479D03*
X131300000Y-51800000D03*
X131300000Y-86500000D03*
X132200000Y-51100000D03*
X132300000Y-83400000D03*
X132900000Y-51300000D03*
X133300000Y-58000000D03*
X134200000Y-62500000D03*
X139000000Y-92500000D03*
X139100000Y-46900000D03*
D11*
%TO.C,J301*%
X138144000Y-53805000D03*
X138144000Y-56345000D03*
X138144000Y-58885000D03*
X138144000Y-61425000D03*
%TO.C,J201*%
X138144000Y-76840000D03*
X138144000Y-79380000D03*
X138144000Y-81920000D03*
X138144000Y-84460000D03*
%TO.C,J301*%
X140684000Y-55075000D03*
X140684000Y-57615000D03*
X140684000Y-60155000D03*
X140684000Y-62695000D03*
%TO.C,J201*%
X140684000Y-78110000D03*
X140684000Y-80650000D03*
X140684000Y-83190000D03*
X140684000Y-85730000D03*
%TO.C,J301*%
X150412000Y-51924000D03*
X150412000Y-62036000D03*
%TO.C,J201*%
X150412000Y-74959000D03*
X150412000Y-85071000D03*
%TO.C,J301*%
X151932000Y-54466000D03*
X151932000Y-64574000D03*
%TO.C,J201*%
X151932000Y-77501000D03*
X151932000Y-87609000D03*
D12*
%TO.C,J402*%
X84790000Y-47500000D03*
X87330000Y-47500000D03*
X89870000Y-47500000D03*
X92410000Y-47500000D03*
X94950000Y-47500000D03*
X97490000Y-47500000D03*
X100030000Y-47500000D03*
X102570000Y-47500000D03*
X105110000Y-47500000D03*
X107650000Y-47500000D03*
X110190000Y-47500000D03*
X112730000Y-47500000D03*
X115270000Y-47500000D03*
X117810000Y-47500000D03*
D13*
%TO.C,J301*%
X143984000Y-50375000D03*
X143984000Y-66125000D03*
%TO.C,J201*%
X143984000Y-73410000D03*
X143984000Y-89160000D03*
D14*
%TO.C,J101*%
X87970000Y-90130000D03*
X87970000Y-95210000D03*
M02*
