%TF.GenerationSoftware,KiCad,Pcbnew,8.0.0*%
%TF.CreationDate,2024-03-19T13:56:09-04:00*%
%TF.ProjectId,Ethernet_Dev_Board,45746865-726e-4657-945f-4465765f426f,rev?*%
%TF.SameCoordinates,Original*%
%TF.FileFunction,Soldermask,Bot*%
%TF.FilePolarity,Negative*%
%FSLAX46Y46*%
G04 Gerber Fmt 4.6, Leading zero omitted, Abs format (unit mm)*
G04 Created by KiCad (PCBNEW 8.0.0) date 2024-03-19 13:56:09*
%MOMM*%
%LPD*%
G01*
G04 APERTURE LIST*
G04 Aperture macros list*
%AMRoundRect*
0 Rectangle with rounded corners*
0 $1 Rounding radius*
0 $2 $3 $4 $5 $6 $7 $8 $9 X,Y pos of 4 corners*
0 Add a 4 corners polygon primitive as box body*
4,1,4,$2,$3,$4,$5,$6,$7,$8,$9,$2,$3,0*
0 Add four circle primitives for the rounded corners*
1,1,$1+$1,$2,$3*
1,1,$1+$1,$4,$5*
1,1,$1+$1,$6,$7*
1,1,$1+$1,$8,$9*
0 Add four rect primitives between the rounded corners*
20,1,$1+$1,$2,$3,$4,$5,0*
20,1,$1+$1,$4,$5,$6,$7,0*
20,1,$1+$1,$6,$7,$8,$9,0*
20,1,$1+$1,$8,$9,$2,$3,0*%
G04 Aperture macros list end*
%ADD10R,1.700000X1.700000*%
%ADD11O,1.700000X1.700000*%
%ADD12RoundRect,0.050800X1.275000X1.275000X-1.275000X1.275000X-1.275000X-1.275000X1.275000X-1.275000X0*%
%ADD13C,2.651600*%
%ADD14C,3.300000*%
%ADD15C,1.509600*%
%ADD16C,1.401600*%
%ADD17C,2.285600*%
%ADD18C,2.375000*%
%ADD19C,0.991000*%
G04 APERTURE END LIST*
D10*
%TO.C,J402*%
X84790000Y-47500000D03*
D11*
X87330000Y-47500000D03*
X89870000Y-47500000D03*
X92410000Y-47500000D03*
X94950000Y-47500000D03*
X97490000Y-47500000D03*
X100030000Y-47500000D03*
X102570000Y-47500000D03*
X105110000Y-47500000D03*
X107650000Y-47500000D03*
X110190000Y-47500000D03*
X112730000Y-47500000D03*
X115270000Y-47500000D03*
X117810000Y-47500000D03*
%TD*%
D12*
%TO.C,J101*%
X87970000Y-95210000D03*
D13*
X87970000Y-90130000D03*
%TD*%
D14*
%TO.C,J301*%
X147034000Y-63965000D03*
X147034000Y-52535000D03*
D15*
X150412000Y-51924000D03*
X151932000Y-54466000D03*
X150412000Y-62036000D03*
X151932000Y-64574000D03*
D16*
X140684000Y-62695000D03*
X138144000Y-61425000D03*
X140684000Y-60155000D03*
X138144000Y-58885000D03*
X140684000Y-57615000D03*
X138144000Y-56345000D03*
X140684000Y-55075000D03*
X138144000Y-53805000D03*
D17*
X143984000Y-66125000D03*
X143984000Y-50375000D03*
%TD*%
D18*
%TO.C,J401*%
X82460000Y-53595000D03*
D19*
X82460000Y-56135000D03*
D18*
X82460000Y-58675000D03*
X88175000Y-53595000D03*
X88175000Y-58675000D03*
D19*
X90080000Y-55119000D03*
X90080000Y-57151000D03*
%TD*%
D14*
%TO.C,J201*%
X147034000Y-87000000D03*
X147034000Y-75570000D03*
D15*
X150412000Y-74959000D03*
X151932000Y-77501000D03*
X150412000Y-85071000D03*
X151932000Y-87609000D03*
D16*
X140684000Y-85730000D03*
X138144000Y-84460000D03*
X140684000Y-83190000D03*
X138144000Y-81920000D03*
X140684000Y-80650000D03*
X138144000Y-79380000D03*
X140684000Y-78110000D03*
X138144000Y-76840000D03*
D17*
X143984000Y-89160000D03*
X143984000Y-73410000D03*
%TD*%
M02*
